<?xml version="1.0" standalone="no"?>
<!DOCTYPE svg PUBLIC "-//W3C//DTD SVG 20010904//EN"
 "http://www.w3.org/TR/2001/REC-SVG-20010904/DTD/svg10.dtd">
<svg version="1.0" xmlns="http://www.w3.org/2000/svg"
 width="612.000000pt" height="344.000000pt" viewBox="0 0 612.000000 344.000000"
 preserveAspectRatio="xMidYMid meet">

<g transform="translate(0.000000,344.000000) scale(0.100000,-0.100000)"
fill="#000000" stroke="none">
<path d="M3230 3213 c-326 -57 -773 -277 -1165 -574 -71 -54 -152 -119 -180
-144 -44 -41 -37 -37 70 33 166 109 274 171 450 257 390 189 643 256 797 211
72 -21 124 -76 134 -144 21 -141 -100 -418 -302 -687 -111 -149 -209 -259
-414 -468 l-185 -188 -113 3 -112 3 77 100 c43 55 120 155 171 222 l93 123 -3
67 -3 68 -285 0 -285 0 -3 -77 -3 -78 169 -2 169 -3 -168 -224 -169 -224 0
-74 0 -73 136 0 c97 0 133 -3 128 -11 -12 -20 -363 -277 -458 -336 -153 -95
-315 -180 -431 -226 -168 -67 -226 -80 -345 -81 -89 -1 -111 2 -145 21 -73 38
-105 96 -105 186 0 142 110 412 286 704 34 57 -56 -52 -142 -172 -160 -223
-262 -425 -300 -593 -22 -98 -16 -202 15 -266 129 -263 746 -96 1376 373 277
207 515 418 742 659 394 418 609 703 754 997 172 350 161 544 -35 609 -47 15
-155 20 -216 9z"/>
<path d="M1200 1865 l0 -525 325 0 326 0 -3 88 -3 87 -204 3 c-133 1 -209 6
-218 14 -10 8 -13 39 -11 127 l3 116 183 3 182 2 0 90 0 90 -182 2 -183 3 0
120 0 120 208 3 207 2 0 90 0 90 -315 0 -315 0 0 -525z"/>
<path d="M2703 1195 c-118 -33 -192 -93 -243 -199 -55 -115 -62 -245 -18 -372
40 -117 122 -197 237 -230 66 -20 231 -15 306 9 l50 16 -3 206 -3 205 -129 0
-130 0 0 -55 0 -55 65 0 65 0 0 -110 0 -110 -42 -1 c-122 -3 -171 11 -225 63
-55 53 -77 119 -78 228 0 84 3 101 28 152 32 65 94 123 146 138 20 5 68 10
106 10 64 0 97 -6 163 -25 21 -7 22 -5 22 52 l0 60 -37 12 c-62 20 -220 23
-280 6z"/>
<path d="M4395 1155 c-5 -2 -29 -9 -52 -15 l-43 -11 0 -69 0 -70 -35 0 c-38 0
-50 -20 -43 -76 3 -26 8 -29 41 -32 l37 -3 0 -197 c0 -179 2 -200 20 -230 32
-52 74 -72 153 -72 92 0 107 9 107 66 l0 46 -50 -7 c-44 -6 -52 -4 -75 19 -25
25 -25 26 -25 200 l0 175 73 3 72 3 3 53 3 52 -75 0 -76 0 0 85 c0 84 -3 91
-35 80z"/>
<path d="M3315 976 c-58 -26 -99 -70 -128 -136 -25 -56 -29 -210 -8 -283 19
-66 87 -140 148 -161 60 -21 176 -20 236 0 l47 16 0 49 c0 27 -2 49 -4 49 -2
0 -23 -7 -46 -15 -54 -19 -153 -19 -190 0 -37 19 -67 62 -79 113 l-9 42 196 0
195 0 -6 80 c-14 175 -98 269 -242 270 -42 0 -75 -7 -110 -24z m164 -89 c30
-15 56 -59 65 -109 l7 -38 -131 0 c-124 0 -130 1 -130 20 0 35 26 85 59 113
36 30 88 36 130 14z"/>
<path d="M3890 985 c-87 -27 -139 -115 -120 -202 16 -70 56 -102 194 -157 55
-21 81 -55 72 -91 -14 -54 -107 -70 -210 -36 l-57 19 3 -56 c3 -56 3 -56 43
-68 64 -20 193 -17 240 5 80 36 126 123 105 200 -13 49 -70 102 -136 126 -101
38 -114 45 -126 70 -15 34 -1 75 32 92 32 16 115 16 163 -1 l37 -14 0 53 c0
50 -2 54 -31 64 -43 15 -154 13 -209 -4z"/>
<path d="M4839 986 c-126 -45 -181 -132 -181 -290 -1 -198 102 -316 277 -316
144 0 234 78 266 229 34 166 -36 332 -160 376 -52 18 -152 19 -202 1z m170
-113 c47 -34 66 -88 66 -183 0 -99 -21 -151 -76 -188 -65 -45 -155 -16 -190
61 -28 64 -27 208 4 261 42 73 132 96 196 49z"/>
<path d="M5535 985 c-17 -9 -43 -34 -58 -57 l-27 -42 0 52 0 52 -60 0 -60 0 0
-300 0 -300 65 0 65 0 0 208 c0 187 2 210 20 239 26 43 54 56 105 50 l43 -6 6
37 c12 76 10 82 -31 82 -21 0 -52 -7 -68 -15z"/>
</g>
</svg>
